<?xml version="1.0" encoding="UTF-8" standalone="no"?>
<svg
        width="210mm"
        height="297mm"
        viewBox="0 0 210 297"
        version="1.1"
        id="svg1"
        xml:space="preserve"
        inkscape:version="1.4.3 (0d15f75, 2025-12-25)"
        sodipodi:docname="silentlab.svg"
        xmlns:inkscape="http://www.inkscape.org/namespaces/inkscape"
        xmlns:sodipodi="http://sodipodi.sourceforge.net/DTD/sodipodi-0.0dtd"
        xmlns="http://www.w3.org/2000/svg"
        xmlns:svg="http://www.w3.org/2000/svg">
  <sodipodi:namedview id="namedview1" pagecolor="#ffffff" bordercolor="#000000" borderopacity="0.25" inkscape:showpageshadow="2" inkscape:pageopacity="0.0" inkscape:pagecheckerboard="0" inkscape:deskcolor="#d1d1d1" inkscape:document-units="mm" inkscape:current-layer="layer1" />
    <defs id="defs1">
    <style>
      path { fill: currentColor; }
      @media (prefers-color-scheme: dark) {
        svg { color: white; }
      }
      @media (prefers-color-scheme: light) {
        svg { color: black; }
      }
    </style>
  </defs>
    <g inkscape:label="Layer 1" inkscape:groupmode="layer" id="layer1">
    <path id="path2" />
        <path
                style="stroke:none;stroke-width:1.80132"
                d="m 3.4607086,171.62424 c 17.0185484,0 37.6840664,3.06004 54.0051924,-2.40264 18.372684,-6.14931 30.183511,-20.8708 43.398899,-33.86978 19.95689,-19.63007 41.19415,-38.606169 59.92731,-59.355858 9.44831,-10.465351 20.13835,-20.279769 30.24025,-30.148829 3.11755,-3.04567 10.59911,-7.999367 11.67484,-12.247941 0.83762,-3.308169 -3.43504,-8.794653 -5.28399,-11.305805 C 185.60796,6.2465146 169.63238,4.3925216 151.01066,4.3925216 c -12.6298,0 -25.62471,-1.2454175 -37.61078,3.3935054 C 99.997579,12.973076 91.258197,23.215922 81.556395,33.128105 67.409242,47.582065 53.051049,61.835123 39.099552,76.467043 31.374523,84.568856 23.526371,92.662097 15.515437,100.49187 c -3.564034,3.48344 -9.6663913,8.12987 -11.5680795,12.71903 -2.0004836,4.82761 -0.4866489,12.72315 -0.4866489,17.90088 v 40.51246 M 206.94462,115.5663 c -17.46942,0 -38.35887,-3.07863 -54.96958,3.02673 -17.61126,6.47307 -30.46715,22.03029 -42.958,35.13035 -18.237519,19.12698 -37.451595,37.57266 -56.373018,56.05797 -11.222819,10.96413 -22.955062,21.83367 -33.475324,33.43942 -2.975074,3.28204 -9.8479809,7.52672 -11.0267401,11.7838 -0.8401843,3.03432 3.3241811,8.09483 5.0377021,10.36364 11.66405,15.44393 27.724643,16.95871 45.732819,16.95871 12.389168,0 25.399346,1.36543 37.128595,-3.30442 12.717286,-5.06332 20.998136,-15.21332 30.379776,-24.48902 15.02386,-14.85424 30.09245,-29.66359 44.86074,-44.75213 7.77041,-7.93895 15.65824,-15.78648 23.60829,-23.55378 3.55744,-3.47566 9.2151,-7.82345 11.41927,-12.24796 2.21486,-4.44595 0.63547,-12.54373 0.63547,-17.42976 z"
                id="path62" />
  </g>
</svg>